<?xml version="1.0" encoding="UTF-8"?>
<svg id="a" data-name="Layer 1" xmlns="http://www.w3.org/2000/svg" width="2400" height="738.924" viewBox="0 0 2400 738.924">
  <polygon points="464.009 406.5 542.651 542.06 315.969 542.06 236.934 406.5 464.009 406.5" fill="#8e8e8e" fill-rule="evenodd"/>
  <polygon points="384.906 271.059 464.009 406.5 236.934 406.5 157.928 271.059 384.906 271.059" fill="#757575" fill-rule="evenodd"/>
  <polygon points="306.014 135.515 384.906 271.059 157.928 271.059 78.899 135.515 306.014 135.515" fill="#666" fill-rule="evenodd"/>
  <polygon points="227.117 0 306.014 135.515 78.899 135.515 0 0 227.117 0" fill="#5a5a5a" fill-rule="evenodd"/>
  <polygon points="542.651 542.06 664.132 542.06 551.16 738.924 429.672 738.924 542.651 542.06" fill="#919191" fill-rule="evenodd"/>
  <polygon points="664.132 542.06 785.619 542.06 672.647 738.924 551.16 738.924 664.132 542.06" fill="#a0a0a0" fill-rule="evenodd"/>
  <polygon points="785.619 542.06 907.1 542.06 794.127 738.924 672.64 738.924 785.619 542.06" fill="#b3b3b3" fill-rule="evenodd"/>
  <path d="M1600.98,135.497h.368l-.368-.368v.368Z"/>
  <path d="M1784.194,406.5v-95.246l-151.361-175.548h79.107l104.665,124.542,104.978-124.914h78.986l-151.681,175.92v95.246h-64.693ZM664.139,406.438V135.671h65.616v225.458h219.871v45.308h-285.487ZM2329.21,406.389l-27.126-50.696h-197.61l-26.464,50.696h-70.384l144.058-270.718h99.153l149.163,270.718h-70.79ZM2127.804,311.033h150.362l-76.13-142.208-74.232,142.208ZM1197.421,406.389V135.671h243.334c23.46,0,44.95,1.592,63.88,4.747,23.684,4.272,39.961,15.061,49.714,32.968,4.537,7.799,7.724,18.651,10.09,34.236,2.298,18.699,3.469,40.175,3.469,63.732,0,27.415-1.433,52.474-4.144,72.468-2.535,16.053-9.167,29.571-20.263,41.229-8.63,8.888-19.171,14.572-32.2,17.349-12.505,2.687-31.714,3.989-58.736,3.989h-255.144ZM1262.379,361.13h163.604c19.767,0,31.907-1.295,40.595-4.327,18.878-6.001,30.646-20.959,33.936-43.234,1.402-10.452,2.108-24.521,2.108-41.884,0-24.473-1.733-40.416-5.619-51.702-5.247-16.639-16.674-27.759-33.006-32.059-8.068-2.728-19.808-4.037-36.696-4.037h-164.924v177.243ZM1038.257,406.389v-191.229l65.285,25.789v165.44h-65.285ZM1037.717,172.56v-36.723h65.826v63.677l-65.826-26.953Z"/>
  <g>
    <path d="M1078.446,620.375c-4.966,2.044-9.928,3.212-15.767,3.212-17.525,0-29.496-11.973-29.496-29.496,0-17.814,12.263-29.494,29.203-29.494,9.925,0,18.395,3.504,25.403,11.68l17.817-16.354c-9.932-11.973-23.949-17.814-43.513-17.814-32.711,0-56.656,21.903-56.656,51.981,0,29.788,23.361,51.691,56.949,51.691,14.017,0,30.077-4.381,41.174-12.557v-40.593h-25.114v27.744Z"/>
    <path d="M1225.917,623.004v-19.568h45.559v-20.15h-45.559v-18.106h51.398v-21.026h-78.555v99.875h80.602v-21.026h-53.444Z"/>
    <path d="M1441.146,544.154v55.193l-46.144-55.193h-22.487v99.875h26.872v-55.195l46.136,55.195h22.487v-99.875h-26.865Z"/>
    <path d="M1617.232,542.11c-32.415,0-56.068,21.903-56.068,51.981,0,29.788,23.653,51.691,56.068,51.691,32.127,0,56.068-21.903,56.068-51.691,0-30.079-23.942-51.981-56.068-51.981ZM1617.232,623.587c-16.356,0-28.619-12.557-28.619-29.496,0-17.229,12.263-29.494,28.619-29.494s28.326,12.265,28.326,29.494c0,16.938-11.971,29.496-28.326,29.496Z"/>
    <path d="M1883.267,544.154h-23.072l-35.043,57.822-35.627-57.822h-23.072v99.875h25.696v-52.858l26.58,42.345h12.263l26.576-44.097.289,54.61h25.703l-.292-99.875Z"/>
    <path d="M1976.712,544.154v99.875h27.453v-99.875h-27.453Z"/>
    <path d="M2154.267,623.587c-16.937,0-29.203-11.973-29.203-29.496,0-17.814,12.267-29.494,29.203-29.494,9.344,0,17.521,3.795,24.238,11.973l17.817-16.061c-10.224-12.85-24.533-18.398-43.224-18.398-31.831,0-55.779,21.903-55.779,51.981s23.949,51.691,55.779,51.691c18.691,0,33-5.256,43.224-18.106l-17.817-16.061c-6.716,8.176-14.894,11.973-24.238,11.973Z"/>
    <path d="M2319.26,572.773c0-5.256,4.677-9.345,16.648-9.345,9.347,0,19.275,2.337,28.326,7.885l8.762-20.443c-9.639-6.133-23.364-8.761-36.212-8.761-28.034,0-44.682,13.432-44.682,32.123,0,37.964,57.822,24.824,57.822,41.47,0,4.964-4.378,8.761-16.644,8.761-12.559,0-25.114-3.797-34.169-9.638l-9.636,20.15c9.636,6.716,26.284,10.805,42.347,10.805,28.911,0,45.263-13.434,45.263-32.123,0-36.797-57.826-24.532-57.826-40.885Z"/>
  </g>
</svg>