<?xml version="1.0" encoding="UTF-8"?>
<svg id="a" data-name="Layer 1" xmlns="http://www.w3.org/2000/svg" width="1500" height="1221.901" viewBox="0 0 1500 1221.901">
  <polygon points="767.295 672.197 897.34 896.362 522.494 896.362 391.799 672.197 767.295 672.197" fill="#8b9b51" fill-rule="evenodd"/>
  <polygon points="636.49 448.229 767.295 672.197 391.799 672.197 261.153 448.229 636.49 448.229" fill="#698449" fill-rule="evenodd"/>
  <polygon points="506.031 224.09 636.49 448.229 261.153 448.229 130.468 224.09 506.031 224.09" fill="#5d723f" fill-rule="evenodd"/>
  <polygon points="375.565 0 506.031 224.09 130.468 224.09 0 0 375.565 0" fill="#536339" fill-rule="evenodd"/>
  <polygon points="897.34 896.362 1098.223 896.362 911.41 1221.901 710.516 1221.901 897.34 896.362" fill="#939d4f" fill-rule="evenodd"/>
  <polygon points="1098.223 896.362 1299.117 896.362 1112.304 1221.901 911.41 1221.901 1098.223 896.362" fill="#aca856" fill-rule="evenodd"/>
  <polygon points="1299.117 896.362 1500 896.362 1313.187 1221.901 1112.293 1221.901 1299.117 896.362" fill="#c6b765" fill-rule="evenodd"/>
</svg>